<svg
  version="1.1"
  xmlns="http://www.w3.org/2000/svg"
  x="0"
  y="0"
  viewBox="0 0 600 509.45"
  style="fill: rgba(255, 255, 255, 0.8);"
>
  <circle cx="354.61" cy="466.92" r="7.71" />
  <circle cx="147.18" cy="467" r="7.71" />
  <circle cx="251.44" cy="467.32" r="7.71" />
  <circle cx="251.44" cy="496.41" r="5.78" />
  <circle cx="251.44" cy="428.48" r="15.42" />
  <circle cx="462.09" cy="152.13" r="7.71" />
  <circle cx="403.61" cy="210.62" r="23.13" />
  <circle cx="438.31" cy="175.91" r="15.42" />
  <circle cx="408.55" cy="98.59" r="7.71" />
  <circle cx="350.07" cy="157.08" r="23.13" />
  <circle cx="384.77" cy="122.38" r="15.42" />
  <circle cx="462.14" cy="359.52" r="7.71" />
  <circle cx="403.53" cy="301" r="23.13" />
  <circle cx="438.23" cy="335.7" r="15.42" />
  <circle cx="462.07" cy="359.46" r="7.71" />
  <circle cx="408.39" cy="413.14" r="7.71" />
  <circle cx="349.84" cy="354.69" r="23.13" />
  <circle cx="384.54" cy="389.39" r="15.42" />
  <circle cx="463.12" cy="254.93" r="7.71" />
  <circle cx="492.22" cy="254.94" r="5.78" />
  <circle cx="424.28" cy="254.94" r="15.42" />
  <circle cx="40.04" cy="359.87" r="7.71" />
  <circle cx="98.58" cy="301.33" r="23.13" />
  <circle cx="63.88" cy="336.03" r="15.42" />
  <circle cx="93.64" cy="413.47" r="7.71" />
  <circle cx="152.18" cy="354.93" r="23.13" />
  <circle cx="117.48" cy="389.63" r="15.42" />
  <circle cx="40.07" cy="152.07" r="7.71" />
  <circle cx="98.63" cy="210.94" r="23.13" />
  <circle cx="63.97" cy="175.97" r="15.42" />
  <circle cx="93.84" cy="98.3" r="7.71" />
  <circle cx="152.39" cy="157.15" r="23.13" />
  <circle cx="117.74" cy="122.2" r="15.42" />
  <circle cx="39.67" cy="256.47" r="7.71" />
  <circle cx="10.58" cy="256.47" r="5.78" />
  <circle cx="78.51" cy="256.47" r="15.42" />
  <circle cx="197.53" cy="202.38" r="30.23" />
  <circle cx="354.95" cy="45" r="7.71" />
  <circle cx="251.24" cy="44" r="7.71" />
  <circle cx="251.24" cy="14.91" r="5.78" />
  <circle cx="147.44" cy="44.7" r="7.71" />
  <circle cx="251.24" cy="82.84" r="15.42" />
  <path d="M331.17 53.36c-8 0-14.58 6.09-15.34 13.89-.45 3.23-1.89 6.34-4.38 8.82-3.28 3.28-7.67 4.77-11.97 4.5-.99-.13-1.99-.22-3.01-.22-12.78 0-23.13 10.36-23.13 23.13v.07a15.46 15.46 0 01-4.54 10.75c-3.42 3.42-8.13 4.92-12.61 4.46a30.48 30.48 0 00-10.04.05c-4.41.4-9.02-1.12-12.39-4.49-2.78-2.78-4.31-6.58-4.53-10.22l-.02-.02c.01-.24.04-.47.04-.72 0-12.78-10.36-23.13-23.13-23.13-1.06 0-2.09.1-3.11.23l-.05-.04c-.02-.02-.04-.02-.07-.02-4.27.27-8.63-1.21-11.89-4.47-2.37-2.37-3.78-5.31-4.29-8.38-.54-8.03-7.2-14.38-15.37-14.38-8.52 0-15.42 6.9-15.42 15.42 0 7.82 5.83 14.27 13.38 15.27l.01.01c3.4.37 6.69 1.84 9.3 4.45 3.31 3.31 4.79 7.73 4.49 12.05 0 .03.01.05.02.07l.05.06c-.12.94-.19 1.88-.19 2.85 0 12.76 10.33 23.1 23.08 23.13a15.47 15.47 0 0110.97 4.55c3.48 3.48 4.98 8.29 4.44 12.84l-.09.63c-.02.1-.03.19-.04.29l.01.01c-1.12 8.94 1.74 18.29 8.61 25.15 11.8 11.8 30.94 11.8 42.75 0 7.01-7.01 9.86-16.6 8.54-25.72-.68-4.66.71-9.63 4.29-13.22 2.78-2.78 6.65-4.21 10.28-4.43l.01-.02c.21.01.42.03.64.03 12.78 0 23.13-10.36 23.13-23.13 0-1.06-.1-2.09-.23-3.11 0-.01.01-.01.01-.02-.27-4.27 1.21-8.63 4.47-11.89 2.41-2.41 5.42-3.84 8.54-4.32.01 0 .01-.01.01-.01 7.94-.63 14.19-7.26 14.19-15.36 0-8.49-6.9-15.39-15.42-15.39zM171.19 458.52c8 0 14.58-6.09 15.34-13.89.45-3.23 1.89-6.34 4.38-8.82 3.28-3.28 7.67-4.77 11.97-4.5.99.13 1.99.22 3.01.22 12.78 0 23.13-10.36 23.13-23.13v-.07a15.46 15.46 0 014.54-10.75c3.42-3.42 8.13-4.92 12.61-4.46 3.32.54 6.72.52 10.04-.05 4.41-.4 9.02 1.12 12.39 4.49 2.78 2.78 4.31 6.58 4.53 10.22l.02.02c-.01.24-.04.47-.04.72 0 12.78 10.36 23.13 23.13 23.13 1.06 0 2.09-.1 3.11-.23l.05.04c.02.02.04.02.07.02 4.27-.27 8.63 1.21 11.89 4.47 2.37 2.37 3.78 5.31 4.29 8.38.54 8.03 7.2 14.38 15.37 14.38 8.52 0 15.42-6.9 15.42-15.42 0-7.82-5.83-14.27-13.38-15.27l-.01-.01c-3.4-.37-6.69-1.84-9.3-4.45-3.31-3.31-4.79-7.73-4.49-12.05 0-.03-.01-.05-.02-.07l-.05-.06c.12-.94.19-1.88.19-2.85 0-12.76-10.33-23.1-23.08-23.13a15.47 15.47 0 01-10.97-4.55c-3.48-3.48-4.98-8.29-4.44-12.84l.09-.63c.02-.1.03-.19.04-.29l-.01-.01c1.12-8.94-1.74-18.29-8.61-25.15-11.8-11.8-30.94-11.8-42.75 0-7.01 7.01-9.86 16.6-8.54 25.72.68 4.66-.71 9.63-4.29 13.22-2.78 2.78-6.65 4.21-10.28 4.43l-.01.02c-.21-.01-.42-.03-.64-.03-12.78 0-23.13 10.36-23.13 23.13 0 1.06.1 2.09.23 3.11 0 .01-.01.01-.01.02.27 4.27-1.21 8.63-4.47 11.89a15.325 15.325 0 01-8.54 4.32c-.01 0-.01.01-.01.01-7.94.63-14.19 7.26-14.19 15.36 0 8.49 6.9 15.39 15.42 15.39z" />
  <circle cx="143.6" cy="256.31" r="30.23" />
  <circle cx="251.05" cy="256.31" r="30.23" />
  <circle cx="358.35" cy="256.31" r="30.23" />
  <circle cx="304.77" cy="309.9" r="30.23" />
  <circle cx="304.55" cy="202.82" r="30.23" />
  <circle cx="197.69" cy="309.68" r="30.23" />
</svg>