<svg xmlns="http://www.w3.org/2000/svg" viewBox="0 0 1140 235">
  <g fill="#FFFFFE" fill-rule="evenodd">
    <path d="M263.013 223.877L139.342 9.652 134.255.854l-5.086 8.798L.397 232.693h267.7l-5.084-8.816zm-65.842-2.934l-25.965-42.044 52.293.021.037.075-25.927 41.948h-.438zm-125.85 0L45.23 178.689l52.38.016-26.123 42.238h-.166zm63.223-2.468l-53.09-92.869 106.227.034-53.137 92.835zm6.159-103.805l23.625-38.24 22.076 38.24h-45.701zm-6.328-.188L108.189 72.09l52.382.014-26.196 42.378zm-6.34.18l-45.929-.006 22.198-38.437 23.731 38.443zm-31.991 58.55H48.301l23.983-41.538 23.76 41.538zm5.472 9.593l21.817 38.138h-45.39l23.573-38.138zm65.871.361l23.34 37.777h-44.963l21.623-37.777zm5.576-9.744l23.575-41.198 23.796 41.219-47.371-.021zM134.255 24.335l24.407 42.299-48.817-.02 24.41-42.279zM42.066 184.009l22.815 36.934H20.744l21.322-36.934zm161.979 36.934l22.604-36.563 21.108 36.563h-43.712zM296.388 119.816V31.282h48.136v14.296h-31.086v21.773h29.512v13.903h-29.512v24.003h31.086v14.559h-48.136zm17.969-94.305l-5.772-9.575 22.954-14.428 6.952 11.542-24.134 12.461zM384.38 120.997c-18.1 0-29.381-9.444-29.381-31.61 0-20.331 10.625-35.939 33.709-35.939 4.46 0 9.182.656 13.379 1.837l-1.705 14.558c-3.541-1.311-7.608-2.361-11.804-2.361-10.625 0-16.002 7.87-16.002 20.2 0 11.149 4.328 18.756 15.477 18.756 4.459 0 9.312-.918 12.854-2.754l1.311 14.296c-4.459 1.705-10.886 3.017-17.838 3.017M438.528 121.128c-18.494 0-30.43-9.575-30.43-32.791 0-20.33 13.51-35.02 33.315-35.02 18.495 0 30.431 10.231 30.431 32.66 0 20.461-13.773 35.151-33.316 35.151zm1.705-53.646c-7.476 0-14.821 5.772-14.821 19.15 0 13.379 4.853 20.2 14.559 20.2 8.263 0 14.559-6.69 14.559-19.937 0-12.592-4.46-19.413-14.297-19.413zM484.697 119.816h16.789V24.068h-16.789zM571.787 89.912H531.39c-.132 12.197 5.901 18.1 17.968 18.1 6.428 0 13.379-1.443 19.019-4.066l1.574 12.984c-6.952 2.755-15.215 4.198-23.347 4.198-20.724 0-32.266-10.362-32.266-33.315 0-19.937 11.018-34.627 30.561-34.627 19.018 0 27.412 12.985 27.412 29.118 0 2.23-.131 4.853-.524 7.608zm-27.413-24.397c-6.951 0-11.804 5.115-12.722 12.985h24.002c.262-8.132-4.197-12.985-11.28-12.985zM652.974 119.816c0-3.148.261-7.345.79-10.886h-.268c-3.406 7.214-10.624 12.329-20.588 12.329-15.871 0-23.741-11.935-23.741-30.561 0-22.035 12.854-37.25 34.495-37.25 2.754 0 5.377.132 8.262.525V24.068h16.659v95.748h-15.609zm-1.05-52.071c-3.015-.656-5.9-1.049-8.784-1.049-9.579 0-16.398 6.033-16.398 22.166 0 12.198 3.543 18.494 11.151 18.494 8.784 0 14.031-10.231 14.031-21.379V67.745zM739.019 89.912H698.62c-.13 12.197 5.899 18.1 17.971 18.1 6.422 0 13.378-1.443 19.016-4.066l1.573 12.984c-6.95 2.755-15.212 4.198-23.343 4.198-20.725 0-32.268-10.362-32.268-33.315 0-19.937 11.015-34.627 30.559-34.627 19.022 0 27.414 12.985 27.414 29.118 0 2.23-.131 4.853-.523 7.608zm-27.413-24.397c-6.95 0-11.805 5.115-12.725 12.985h24.001c.267-8.132-4.196-12.985-11.276-12.985zM764.202 121.128c-4.725 0-9.443-.524-13.645-1.181l.398-13.771c4.065 1.049 9.044 1.967 14.03 1.967 6.425 0 10.625-2.623 10.625-6.952 0-11.542-26.365-4.984-26.365-27.15 0-11.412 9.312-20.855 27.675-20.855 3.8 0 8 .525 11.94 1.18l-.53 13.248c-3.67-1.05-8-1.706-12.06-1.706-6.56 0-9.706 2.624-9.706 6.69 0 10.624 26.756 5.902 26.756 27.02 0 12.853-11.28 21.51-29.118 21.51M857.85 88.862c-1.57 0-3.67 0-5.78-.262v31.216h-17.05V31.282c7.22-.394 15.09-.525 23.74-.525 21.78 0 33.71 10.1 33.71 27.413 0 17.182-13.11 30.692-34.62 30.692zm.26-44.202c-2.1 0-4.06 0-6.04.132v29.511c1.71.262 3.42.393 4.99.393 10.49-.131 17.71-5.902 17.71-15.477 0-8.918-5.12-14.559-16.66-14.559zM927.35 121.128c-18.5 0-30.43-9.575-30.43-32.791 0-20.33 13.51-35.02 33.32-35.02 18.49 0 30.43 10.231 30.43 32.66 0 20.461-13.78 35.151-33.32 35.151zm1.71-53.646c-7.48 0-14.83 5.772-14.83 19.15 0 13.379 4.86 20.2 14.57 20.2 8.26 0 14.55-6.69 14.55-19.937 0-12.592-4.46-19.413-14.29-19.413zM1013.52 119.816V78.107c0-6.821-1.83-10.887-8-10.887-8.53 0-15.21 9.706-15.21 21.117v31.479h-16.79V54.629h15.87c0 3.016-.27 8.132-.92 11.542l.13.131c3.94-7.738 11.55-13.116 22.17-13.116 14.69 0 19.41 9.443 19.41 20.855v45.775h-16.66M1068.99 121.128c-14.43 0-18.89-5.247-18.89-20.461V67.614h-11.28V54.629h11.15V34.561l16.79-4.459v24.527h15.87v12.985h-15.87v28.593c0 8.394 1.97 10.755 7.74 10.755 2.75 0 5.77-.393 8.13-1.049v13.509c-4.2 1.051-9.05 1.706-13.64 1.706M1106.9 121.128c-4.73 0-9.45-.524-13.65-1.181l.4-13.771c4.07 1.049 9.05 1.967 14.03 1.967 6.43 0 10.62-2.623 10.62-6.952 0-11.542-26.36-4.984-26.36-27.15 0-11.412 9.31-20.855 27.68-20.855 3.8 0 8 .525 11.93 1.18l-.52 13.248c-3.67-1.05-8-1.706-12.07-1.706-6.55 0-9.71 2.624-9.71 6.69 0 10.624 26.76 5.902 26.76 27.02 0 12.853-11.28 21.51-29.11 21.51M292.385 200.637v-6.968-10.04-12.282-13.465-13.701h13.582l.236 33.071c2.283-1.103 4.784-2.068 7.5-2.894 2.717-.826 5.847-1.24 9.39-1.24 5.196 0 9.605.728 13.228 2.186 3.621 1.457 6.614 3.504 8.976 6.14 2.363 2.64 4.134 5.808 5.315 9.508 1.181 3.702 1.849 7.836 2.008 12.402-.159 4.567-.827 8.663-2.008 12.284-1.181 3.623-2.952 6.713-5.315 9.271-2.362 2.56-5.355 4.528-8.976 5.905-3.623 1.379-8.032 2.067-13.228 2.067-5.433 0-10.059-.688-13.878-2.067-3.82-1.377-6.95-3.345-9.389-5.905-2.442-2.558-4.252-5.648-5.434-9.271-1.181-3.621-1.85-7.717-2.007-12.284v-2.717zm13.582 4.843c0 3.937.394 7.226 1.181 9.862.786 2.638 1.909 4.745 3.366 6.319a12.207 12.207 0 005.256 3.366c2.046.669 4.29.966 6.732.886 2.44.08 4.684-.196 6.732-.827a11.71 11.71 0 005.256-3.308c1.456-1.573 2.579-3.699 3.366-6.377.787-2.676 1.181-5.984 1.181-9.921v-4.134c0-3.936-.394-7.283-1.181-10.039-.787-2.755-1.91-4.979-3.366-6.673-1.457-1.693-3.208-2.894-5.256-3.602-2.048-.71-4.292-1.023-6.732-.945-2.442-.078-4.686.256-6.732 1.002-2.048.751-3.799 1.97-5.256 3.662-1.457 1.696-2.58 3.898-3.366 6.615-.787 2.716-1.181 6.044-1.181 9.98v4.134zM377.186 215.342c.629 2.638 1.575 4.745 2.835 6.319a10.366 10.366 0 004.724 3.366c1.89.669 4.054.966 6.496.886 2.439.08 4.684-.196 6.732-.827a11.725 11.725 0 005.256-3.308c1.456-1.573 2.578-3.699 3.366-6.377.786-2.676 1.181-5.984 1.181-9.921v-31.772h13.583v28.11c0 9.608-2.54 17.185-7.618 22.737-5.079 5.551-12.383 8.326-21.91 8.326-5.275 0-9.764-.727-13.464-2.185-3.702-1.456-6.713-3.524-9.035-6.2-2.324-2.676-4.016-5.924-5.079-9.745-1.063-3.818-1.594-8.128-1.594-12.933v-28.11h13.582v31.772c0 3.937.314 7.226.945 9.862M453.306 227.035c1.612-.432 3.05-1.063 4.311-1.89 1.258-.827 2.243-1.831 2.952-3.012.709-1.182 1.063-2.557 1.063-4.134 0-1.417-.375-2.657-1.122-3.72-.749-1.063-1.732-2.008-2.953-2.836-1.221-.826-2.619-1.552-4.192-2.183-1.577-.631-3.23-1.26-4.961-1.89a98.14 98.14 0 01-6.732-2.599c-2.206-.944-4.193-2.105-5.965-3.484a16.254 16.254 0 01-4.311-5.079c-1.103-2.007-1.653-4.468-1.653-7.382 0-2.439.59-4.645 1.771-6.613 1.181-1.968 2.776-3.641 4.784-5.021 2.008-1.376 4.311-2.421 6.909-3.13 2.599-.708 5.315-1.062 8.149-1.062 2.204 0 4.174.079 5.906.236a29.9 29.9 0 014.842.826c1.495.396 2.913.927 4.252 1.596a65.579 65.579 0 014.37 2.421c.237 1.576.334 2.934.296 4.074a97.26 97.26 0 00-.059 3.485 65.78 65.78 0 00-3.012-2.126c-1.063-.709-2.303-1.377-3.721-2.009-1.417-.628-3.07-1.16-4.96-1.593-1.89-.432-4.134-.768-6.733-1.004a18.67 18.67 0 00-4.428.531c-1.458.354-2.738.868-3.839 1.535-1.103.67-2.008 1.497-2.716 2.481-.709.985-1.063 2.146-1.063 3.484 0 1.417.373 2.638 1.122 3.662.747 1.024 1.751 1.968 3.011 2.834 1.259.867 2.696 1.635 4.311 2.303 1.613.67 3.287 1.358 5.02 2.067 2.204.867 4.409 1.792 6.614 2.776 2.204.984 4.193 2.166 5.965 3.543a16.81 16.81 0 014.311 4.961c1.101 1.93 1.653 4.272 1.653 7.026 0 3.071-.69 5.729-2.067 7.973a17.048 17.048 0 01-5.374 5.492c-2.206 1.417-4.685 2.462-7.44 3.131-2.758.667-5.474 1.003-8.15 1.003a92.446 92.446 0 01-9.154-.709 61.056 61.056 0 01-9.507-2.008l-1.063-8.031c2.912 2.048 5.767 3.386 8.563 4.016 2.794.631 6.082.867 9.862.708 1.81 0 3.522-.215 5.138-.649M483.777 147.016c1.693-1.731 3.759-2.599 6.2-2.599 2.44 0 4.528.868 6.26 2.599 1.732 1.732 2.599 3.82 2.599 6.259a7.672 7.672 0 01-.768 3.367 9.761 9.761 0 01-2.066 2.834 10.14 10.14 0 01-2.895 1.949c-1.063.472-2.107.709-3.13.709-2.441 0-4.507-.865-6.2-2.598-1.694-1.732-2.539-3.819-2.539-6.261 0-2.439.845-4.527 2.539-6.259zm-.295 85.746h13.582v-59.29h-13.582v59.29zM553.047 191.838c-.631-2.637-1.576-4.742-2.835-6.319a10.38 10.38 0 00-4.724-3.366c-1.89-.668-4.056-.963-6.496-.885-2.442-.078-4.685.197-6.732.826a11.753 11.753 0 00-5.255 3.307c-1.459 1.576-2.581 3.702-3.367 6.378-.789 2.678-1.181 5.986-1.181 9.922v31.061h-13.583v-27.4c0-9.606 2.539-17.185 7.619-22.737 5.078-5.55 12.381-8.325 21.909-8.325 5.274 0 9.762.727 13.464 2.184 3.7 1.458 6.712 3.525 9.035 6.202 2.322 2.676 4.016 5.924 5.079 9.743 1.063 3.82 1.595 8.131 1.595 12.933v27.4h-13.583v-31.061c0-3.936-.315-7.223-.945-9.863M590.486 207.134c.236 2.126.689 4.331 1.358 6.614a18.772 18.772 0 003.19 6.259c1.456 1.89 3.365 3.466 5.728 4.724 2.362 1.262 5.315 1.89 8.858 1.89 2.912 0 6.85-.667 11.811-2.008l.947 3.898a125.367 125.367 0 01-7.443 3.072c-2.522.944-5.158 1.337-7.914 1.179-4.174 0-8.012-.707-11.515-2.126-3.506-1.416-6.555-3.404-9.154-5.963-2.598-2.559-4.666-5.611-6.2-9.153-1.535-3.544-2.383-7.442-2.539-11.693 0-3.936.708-7.638 2.126-11.102 1.416-3.464 3.403-6.515 5.964-9.155 2.557-2.637 5.569-4.742 9.035-6.318 3.464-1.575 7.243-2.44 11.339-2.598 4.329.079 8.267.885 11.811 2.421 3.543 1.535 6.572 3.623 9.096 6.26 2.517 2.638 4.445 5.709 5.787 9.212 1.337 3.504 1.927 7.187 1.772 11.043 0 .395-.025.965-.062 1.713a37.414 37.414 0 00-.056 1.831h-43.939zm8.917-24.154a14.99 14.99 0 00-4.488 4.134c-1.222 1.694-2.185 3.642-2.894 5.846a33.13 33.13 0 00-1.417 6.851h30.944c-.631-6.456-2.323-11.141-5.078-14.056-2.757-2.912-6.301-4.369-10.629-4.369h-.237c-2.362 0-4.429.53-6.201 1.594zM666.606 227.035c1.617-.432 3.053-1.063 4.314-1.89 1.256-.827 2.244-1.831 2.953-3.012.703-1.182 1.063-2.557 1.063-4.134 0-1.417-.379-2.657-1.125-3.72-.746-1.063-1.734-2.008-2.953-2.836-1.224-.826-2.617-1.552-4.19-2.183a166.734 166.734 0 00-4.966-1.89 98.211 98.211 0 01-6.727-2.599c-2.206-.944-4.195-2.105-5.967-3.484a16.245 16.245 0 01-4.308-5.079c-1.106-2.007-1.653-4.468-1.653-7.382 0-2.439.59-4.645 1.771-6.613 1.181-1.968 2.773-3.641 4.78-5.021 2.008-1.376 4.309-2.421 6.913-3.13 2.599-.708 5.315-1.062 8.143-1.062 2.207 0 4.178.079 5.906.236a29.97 29.97 0 014.849.826 22.41 22.41 0 014.252 1.596 67.114 67.114 0 014.37 2.421c.235 1.576.329 2.934.292 4.074a107.652 107.652 0 00-.057 3.485 65.32 65.32 0 00-3.014-2.126c-1.063-.709-2.3-1.377-3.724-2.009-1.411-.628-3.064-1.16-4.954-1.593-1.89-.432-4.134-.768-6.732-1.004-1.498 0-2.978.177-4.432.531-1.461.354-2.736.868-3.836 1.535a9.124 9.124 0 00-2.717 2.481c-.708.985-1.062 2.146-1.062 3.484 0 1.417.372 2.638 1.118 3.662.747 1.024 1.753 1.968 3.016 2.834 1.255.867 2.691 1.635 4.307 2.303 1.616.67 3.289 1.358 5.023 2.067 2.201.867 4.407 1.792 6.614 2.776 2.201.984 4.19 2.166 5.961 3.543a16.835 16.835 0 014.314 4.961c1.101 1.93 1.654 4.272 1.654 7.026 0 3.071-.69 5.729-2.07 7.973a17.09 17.09 0 01-5.371 5.492c-2.206 1.417-4.687 2.462-7.441 3.131-2.759.667-5.476 1.003-8.155 1.003a92.456 92.456 0 01-9.151-.709 61.07 61.07 0 01-9.504-2.008l-1.063-8.031c2.909 2.048 5.762 3.386 8.559 4.016 2.791.631 6.086.867 9.866.708 1.809 0 3.518-.215 5.134-.649M716.448 227.035c1.616-.432 3.052-1.063 4.308-1.89 1.262-.827 2.25-1.831 2.953-3.012.708-1.182 1.063-2.557 1.063-4.134 0-1.417-.373-2.657-1.119-3.72-.746-1.063-1.735-2.008-2.953-2.836-1.225-.826-2.617-1.552-4.189-2.183a167.88 167.88 0 00-4.967-1.89 97.985 97.985 0 01-6.726-2.599c-2.207-.944-4.197-2.105-5.968-3.484a16.232 16.232 0 01-4.308-5.079c-1.107-2.007-1.653-4.468-1.653-7.382 0-2.439.59-4.645 1.765-6.613 1.187-1.968 2.779-3.641 4.787-5.021 2.008-1.376 4.307-2.421 6.912-3.13 2.592-.708 5.315-1.062 8.143-1.062 2.207 0 4.178.079 5.906.236 1.734.159 3.35.434 4.842.826 1.499.396 2.916.927 4.258 1.596a65.294 65.294 0 014.364 2.421c.236 1.576.336 2.934.298 4.074a92.738 92.738 0 00-.062 3.485 61.972 61.972 0 00-3.008-2.126c-1.063-.709-2.307-1.377-3.724-2.009-1.411-.628-3.064-1.16-4.954-1.593-1.89-.432-4.14-.768-6.733-1.004-1.498 0-2.977.177-4.432.531-1.461.354-2.735.868-3.835 1.535-1.107.67-2.014 1.497-2.716 2.481-.709.985-1.063 2.146-1.063 3.484 0 1.417.366 2.638 1.118 3.662.746 1.024 1.754 1.968 3.015 2.834 1.256.867 2.692 1.635 4.308 2.303 1.61.67 3.289 1.358 5.023 2.067 2.201.867 4.407 1.792 6.608 2.776 2.206.984 4.196 2.166 5.968 3.543a16.864 16.864 0 014.314 4.961c1.1 1.93 1.653 4.272 1.653 7.026 0 3.071-.69 5.729-2.07 7.973a17.047 17.047 0 01-5.377 5.492c-2.201 1.417-4.681 2.462-7.441 3.131-2.754.667-5.47 1.003-8.149 1.003a92.433 92.433 0 01-9.151-.709 61.07 61.07 0 01-9.504-2.008l-1.063-8.031c2.909 2.048 5.762 3.386 8.56 4.016 2.791.631 6.079.867 9.858.708 1.815 0 3.525-.215 5.141-.649M805.56 227.035c1.61-.432 3.05-1.063 4.31-1.89 1.26-.827 2.25-1.831 2.96-3.012.7-1.182 1.06-2.557 1.06-4.134 0-1.417-.37-2.657-1.13-3.72-.74-1.063-1.72-2.008-2.95-2.836-1.22-.826-2.62-1.552-4.19-2.183-1.58-.631-3.23-1.26-4.96-1.89a96.517 96.517 0 01-6.73-2.599c-2.21-.944-4.2-2.105-5.97-3.484a16.264 16.264 0 01-4.31-5.079c-1.1-2.007-1.65-4.468-1.65-7.382 0-2.439.59-4.645 1.77-6.613 1.18-1.968 2.77-3.641 4.78-5.021 2.01-1.376 4.31-2.421 6.91-3.13 2.6-.708 5.32-1.062 8.15-1.062 2.2 0 4.17.079 5.91.236 1.73.159 3.34.434 4.84.826 1.49.396 2.91.927 4.25 1.596 1.34.669 2.79 1.476 4.37 2.421.24 1.576.34 2.934.29 4.074-.03 1.143-.05 2.304-.05 3.485a65.04 65.04 0 00-3.02-2.126c-1.06-.709-2.3-1.377-3.71-2.009-1.42-.628-3.07-1.16-4.96-1.593-1.89-.432-4.14-.768-6.74-1.004-1.49 0-2.97.177-4.43.531-1.45.354-2.73.868-3.83 1.535a9.1 9.1 0 00-2.72 2.481c-.71.985-1.06 2.146-1.06 3.484 0 1.417.37 2.638 1.12 3.662.75 1.024 1.75 1.968 3.01 2.834 1.26.867 2.7 1.635 4.31 2.303 1.61.67 3.29 1.358 5.02 2.067 2.2.867 4.41 1.792 6.62 2.776 2.2.984 4.19 2.166 5.96 3.543a16.908 16.908 0 014.31 4.961c1.1 1.93 1.65 4.272 1.65 7.026 0 3.071-.69 5.729-2.07 7.973a16.995 16.995 0 01-5.37 5.492c-2.2 1.417-4.68 2.462-7.44 3.131-2.76.667-5.47 1.003-8.15 1.003a92.46 92.46 0 01-9.15-.709 61.189 61.189 0 01-9.51-2.008L782 222.96c2.91 2.048 5.77 3.386 8.56 4.016 2.8.631 6.08.867 9.86.708 1.81 0 3.53-.215 5.14-.649M856.46 184.339a17.658 17.658 0 00-6.08 4.429c-1.73 1.93-3.01 4.429-3.84 7.499-.82 3.071-.96 6.811-.41 11.221.31 2.678 1.52 5.453 3.6 8.327 2.09 2.875 4.92 5.314 8.5 7.322 3.59 2.008 7.9 3.268 12.94 3.779 5.04.514 10.71-.295 17.01-2.42l.23 3.779c-1.65.709-3.23 1.399-4.72 2.067-1.5.67-3.19 1.28-5.08 1.83-1.89.553-4.11 1.004-6.67 1.359-2.56.354-5.69.57-9.39.65-4.25.077-8.15-.611-11.69-2.068-3.55-1.456-6.62-3.483-9.22-6.082-2.59-2.599-4.6-5.708-6.02-9.331-1.42-3.621-2.13-7.559-2.13-11.811 0-5.037 1-9.644 3.01-13.818 2.01-4.173 4.79-7.618 8.33-10.335 3.55-2.716 7.72-4.587 12.52-5.61 4.8-1.022 10.04-.866 15.71.472 4.41 1.418 7.75 3.19 10.04 5.316 2.28 2.126 3.85 4.094 4.72 5.905.16.315.26.453.3.413.04-.039-.2.04-.71.237-.51.197-1.34.669-2.48 1.416-1.14.749-2.82 2.067-5.02 3.958-1.11-1.81-2.12-3.385-3.07-4.725-.94-1.337-2.01-2.44-3.19-3.307-1.18-.866-2.56-1.495-4.13-1.89-1.58-.392-3.51-.59-5.79-.59-2.52.315-4.94.985-7.27 2.008M897.27 144.417h13.7v33.662c4.41-2.519 9.73-3.779 15.95-3.779 5.27 0 9.76.727 13.46 2.184 3.7 1.458 6.71 3.525 9.03 6.202 2.33 2.676 4.02 5.924 5.08 9.743 1.07 3.82 1.6 8.131 1.6 12.933v27.637h-13.7c0-.472.02-1.908.06-4.311.03-2.4.06-5.176.06-8.327v-9.92-8.74c0-3.936-.32-7.223-.95-9.863-.63-2.637-1.58-4.742-2.83-6.319a10.403 10.403 0 00-4.73-3.366c-1.88-.668-4.05-.963-6.49-.885-2.36-.078-4.55.176-6.56.768a11.775 11.775 0 00-5.2 3.13c-1.45 1.495-2.59 3.504-3.42 6.022-.83 2.521-1.28 5.63-1.36 9.331v32.48h-13.7v-88.582M1010.07 176.425c3.61 1.654 6.61 3.839 8.97 6.555 2.37 2.716 4.14 5.846 5.32 9.39 1.18 3.543 1.84 7.245 2.01 11.102-.17 4.016-.81 7.816-1.96 11.398-1.14 3.583-2.89 6.693-5.25 9.331s-5.38 4.744-9.04 6.318c-3.66 1.576-8.08 2.362-13.28 2.362-5.43 0-10.07-.786-13.88-2.362-3.82-1.574-6.95-3.72-9.39-6.437-2.44-2.717-4.25-5.847-5.43-9.389-1.18-3.544-1.85-7.282-2.01-11.221.07-3.857.71-7.559 1.89-11.102 1.18-3.544 2.99-6.674 5.43-9.39 2.44-2.716 5.59-4.901 9.45-6.555 3.86-1.654 8.51-2.48 13.94-2.48 5.2 0 9.6.826 13.23 2.48zm-29.18 38.917c.79 2.638 1.91 4.745 3.37 6.319a12.11 12.11 0 005.26 3.366c2.04.669 4.29.966 6.73.886 2.43.08 4.68-.196 6.73-.827 2.05-.629 3.8-1.73 5.25-3.308 1.46-1.573 2.58-3.699 3.37-6.377.79-2.676 1.18-5.984 1.18-9.921v-4.134c0-3.936-.39-7.243-1.18-9.922-.79-2.675-1.91-4.801-3.37-6.377a11.691 11.691 0 00-5.25-3.307c-2.05-.629-4.3-.904-6.73-.826-2.44-.078-4.69.217-6.73.885a12.12 12.12 0 00-5.26 3.367c-1.46 1.575-2.58 3.681-3.37 6.318-.79 2.639-1.18 5.926-1.18 9.862v4.134c0 3.937.39 7.226 1.18 9.862zM1080.34 176.425c3.62 1.654 6.61 3.839 8.97 6.555 2.36 2.716 4.14 5.846 5.32 9.39a39.865 39.865 0 012 11.102c-.15 4.016-.8 7.816-1.94 11.398-1.14 3.583-2.9 6.693-5.26 9.331s-5.37 4.744-9.03 6.318c-3.66 1.576-8.1 2.362-13.29 2.362-5.44 0-10.06-.786-13.88-2.362-3.82-1.574-6.95-3.72-9.39-6.437-2.44-2.717-4.25-5.847-5.43-9.389-1.18-3.544-1.86-7.282-2.01-11.221.08-3.857.71-7.559 1.89-11.102 1.18-3.544 3-6.674 5.43-9.39 2.44-2.716 5.6-4.901 9.45-6.555 3.86-1.654 8.5-2.48 13.94-2.48 5.19 0 9.61.826 13.23 2.48zm-29.18 38.917c.79 2.638 1.91 4.745 3.37 6.319a12.253 12.253 0 005.25 3.366c2.05.669 4.3.966 6.74.886 2.44.08 4.68-.196 6.73-.827 2.04-.629 3.8-1.73 5.26-3.308 1.45-1.573 2.57-3.699 3.36-6.377.79-2.676 1.18-5.984 1.18-9.921v-4.134c0-3.936-.39-7.243-1.18-9.922-.79-2.675-1.91-4.801-3.36-6.377a11.831 11.831 0 00-5.26-3.307c-2.05-.629-4.29-.904-6.73-.826-2.44-.078-4.69.217-6.74.885-2.04.67-3.79 1.792-5.25 3.367s-2.58 3.681-3.37 6.318c-.79 2.639-1.18 5.926-1.18 9.862v4.134c0 3.937.39 7.226 1.18 9.862zM1107.26 201.583v-57.402h13.59v61.063c0 3.779.57 6.95 1.71 9.507 1.14 2.561 2.59 4.647 4.37 6.26 1.77 1.615 3.76 2.776 5.96 3.485 2.2.709 4.37 1.103 6.5 1.181v6.968c-10.16-.236-18.05-3.11-23.68-8.622-5.63-5.51-8.45-12.992-8.45-22.44"/>
  </g>
</svg>
