<svg xmlns="http://www.w3.org/2000/svg" opacity="0.2" viewBox="0 0 490 483">
  <g fill="#FFF" fill-rule="nonzero">
    <circle cx="143.53" cy="42.75" r="7.72"/>
    <circle cx="196.95" cy="94.31" r="23.16"/>
    <circle cx="174.87" cy="58.73" r="15.44"/>
    <circle cx="340.63" cy="30.91" r="7.72"/>
    <circle cx="291.9" cy="91.31" r="23.16"/>
    <circle cx="333.34" cy="66.09" r="15.44"/>
    <circle cx="247.37" cy="36.12" r="7.72"/>
    <circle cx="239.68" cy="6.99" r="5.79"/>
    <circle cx="186.13" cy="132.95" r="5.79"/>
    <circle cx="150.92" cy="103.94" r="5.79"/>
    <circle cx="184.36" cy="27.45" r="5.79"/>
    <circle cx="239.68" cy="75.01" r="15.44"/>
    <circle cx="356.36" cy="441.53" r="7.72"/>
    <circle cx="341.25" cy="390.57" r="7.72"/>
    <circle cx="474.39" cy="288.72" r="7.72"/>
    <circle cx="289.89" cy="399.66" r="23.16"/>
    <circle cx="323.45" cy="437.66" r="15.44"/>
    <circle cx="139.05" cy="442.7" r="7.72"/>
    <circle cx="262.32" cy="458.65" r="7.72"/>
    <circle cx="372.83" cy="403.4" r="7.72"/>
    <circle cx="417.23" cy="340.25" r="7.72"/>
    <circle cx="292.09" cy="446.33" r="7.72"/>
    <circle cx="72.93" cy="365.73" r="7.72"/>
    <circle cx="430.37" cy="275.1" r="7.72"/>
    <circle cx="348.16" cy="418.2" r="7.72"/>
    <circle cx="196.56" cy="393.9" r="23.16"/>
    <circle cx="181.12" cy="441.53" r="15.44"/>
    <circle cx="243.43" cy="451.12" r="7.72"/>
    <circle cx="250.83" cy="476.38" r="5.79"/>
    <circle cx="297.3" cy="352.63" r="5.79"/>
    <circle cx="436.97" cy="334.33" r="5.79"/>
    <circle cx="353.51" cy="296.42" r="5.79"/>
    <circle cx="288.96" cy="476.42" r="5.79"/>
    <circle cx="422.17" cy="375.77" r="5.79"/>
    <circle cx="155.75" cy="418.2" r="5.79"/>
    <circle cx="354.08" cy="182.37" r="5.79"/>
    <circle cx="292.9" cy="128.1" r="5.79"/>
    <circle cx="292.9" cy="39.3" r="5.79"/>
    <circle cx="308.69" cy="57.06" r="5.79"/>
    <circle cx="211.99" cy="21.53" r="5.79"/>
    <circle cx="269.22" cy="9.69" r="5.79"/>
    <circle cx="251.97" cy="421.14" r="15.44"/>
    <circle cx="452.12" cy="132.72" r="7.72"/>
    <circle cx="368.88" cy="49.16" r="7.72"/>
    <circle cx="400.05" cy="200.29" r="23.16"/>
    <circle cx="436.15" cy="175.58" r="15.44"/>
    <circle cx="417.16" cy="116.92" r="7.72"/>
    <circle cx="415.53" cy="76.8" r="7.72"/>
    <circle cx="338.23" cy="96.2" r="7.72"/>
    <circle cx="345.57" cy="146.76" r="23.16"/>
    <circle cx="381.98" cy="121.36" r="15.44"/>
    <circle cx="397.18" cy="292.37" r="23.16"/>
    <circle cx="448.33" cy="305.54" r="15.44"/>
    <circle cx="440.42" cy="352.52" r="7.72"/>
    <circle cx="381.06" cy="328.99" r="7.72"/>
    <circle cx="452.22" cy="275.64" r="7.72"/>
    <circle cx="402.84" cy="396.02" r="7.72"/>
    <circle cx="137.99" cy="402.41" r="7.72"/>
    <circle cx="394.54" cy="150.8" r="7.72"/>
    <circle cx="315.6" cy="28.44" r="7.72"/>
    <circle cx="344.44" cy="345.12" r="23.16"/>
    <circle cx="389.53" cy="364.39" r="15.44"/>
    <circle cx="458.03" cy="224.65" r="7.72"/>
    <circle cx="483.42" cy="251.01" r="5.79"/>
    <circle cx="470.37" cy="179.56" r="5.79"/>
    <circle cx="382.7" cy="86.66" r="5.79"/>
    <circle cx="266.26" cy="61" r="5.79"/>
    <circle cx="427.04" cy="245.95" r="15.44"/>
    <circle cx="30.38" cy="340.75" r="7.72"/>
    <circle cx="11.63" cy="263.78" r="7.72"/>
    <circle cx="96.5" cy="293.84" r="23.16"/>
    <circle cx="69.4" cy="328.62" r="15.44"/>
    <circle cx="88.58" cy="406.72" r="7.72"/>
    <circle cx="39.37" cy="291.52" r="7.72"/>
    <circle cx="213.5" cy="59.49" r="7.72"/>
    <circle cx="82.73" cy="135.99" r="7.72"/>
    <circle cx="147.5" cy="344.83" r="23.16"/>
    <circle cx="112.27" cy="369.63" r="15.44"/>
    <circle cx="46.04" cy="136.49" r="7.72"/>
    <circle cx="39.32" cy="208.03" r="7.72"/>
    <circle cx="288.96" cy="7.72" r="7.72"/>
    <circle cx="92.62" cy="204.06" r="23.16"/>
    <circle cx="58.17" cy="175.51" r="15.44"/>
    <circle cx="83.23" cy="103.1" r="7.72"/>
    <circle cx="93.1" cy="159.35" r="7.72"/>
    <circle cx="138.81" cy="187.16" r="7.72"/>
    <circle cx="470.52" cy="205.07" r="7.72"/>
    <circle cx="24.51" cy="183.18" r="7.72"/>
    <circle cx="146.87" cy="147.54" r="23.16"/>
    <circle cx="118.42" cy="111.39" r="15.44"/>
    <circle cx="46.54" cy="255.63" r="7.72"/>
    <circle cx="5.79" cy="233.19" r="5.79"/>
    <circle cx="434.49" cy="209.99" r="5.79"/>
    <circle cx="108.24" cy="82.86" r="5.79"/>
    <circle cx="71.81" cy="240.98" r="15.44"/>
    <circle cx="244.61" cy="139.6" r="30.26"/>
    <path d="M276.24 245.947a30.25 30.25 0 0023.152 24.602 30.36 30.36 0 017.463.741l.325-.01.113.113c13.255 3.217 23.097 15.163 23.097 29.407 0 16.712-13.548 30.26-30.26 30.26-16.292 0-29.577-12.875-30.234-29.006-2.08-12.777-12.096-22.829-24.856-24.96a30.25 30.25 0 00-23.311 22.598c.014.38.021.764.021 1.148 0 16.712-13.548 30.26-30.26 30.26-16.712 0-30.26-13.548-30.26-30.26 0-15.939 12.323-29 27.961-30.174 13.07-1.707 23.477-11.68 25.833-24.53-2.698-12.742-13.357-22.481-26.564-23.806l-.065-.065c-15.263-1.546-27.175-14.434-27.175-30.105 0-16.712 13.548-30.26 30.26-30.26 15.556 0 28.37 11.739 30.069 26.841l.004.04c.03.264.056.53.078.797a30.1 30.1 0 008.659 17.982 30.19 30.19 0 0015.146 8.207c12.644-2.491 22.425-12.796 24.13-25.717 1.3-15.514 14.304-27.7 30.154-27.7 16.712 0 30.26 13.548 30.26 30.26 0 16.712-13.548 30.26-30.26 30.26-.18 0-.36-.002-.54-.005A30.06 30.06 0 00284.41 231a30.12 30.12 0 00-8.17 14.947z"/>
    <circle cx="136.57" cy="246.34" r="30.26"/>
    <circle cx="353.41" cy="246.93" r="30.26"/>
    <circle cx="244.61" cy="354.19" r="30.26"/>
  </g>
</svg>
